<?xml version="1.0" standalone="no"?>
<!DOCTYPE svg PUBLIC "-//W3C//DTD SVG 1.1//EN" "http://www.w3.org/Graphics/SVG/1.1/DTD/svg11.dtd" >
<svg xmlns="http://www.w3.org/2000/svg" xmlns:xlink="http://www.w3.org/1999/xlink" version="1.1">
<metadata></metadata>
<defs>
<font id="vibrey_uppercaseon" horiz-adv-x="702" >
<font-face units-per-em="2048" ascent="1638" descent="-410" />
<missing-glyph horiz-adv-x="727" />
<glyph horiz-adv-x="0" />
<glyph horiz-adv-x="682" />
<glyph unicode=" "  horiz-adv-x="727" />
<glyph unicode="&#x09;" horiz-adv-x="727" />
<glyph unicode="&#xa0;" horiz-adv-x="727" />
<glyph unicode="!" horiz-adv-x="532" d="M0 418l66 102l-66 103l66 102l-66 98l66 103l-66 102l66 102l-66 105l66 100l-66 101l66 102l-66 102l66 103l-62 96l-2 219h49v-205l72 -110l-68 -103l68 -102l-68 -102l68 -99l-68 -102l68 -105l-68 -102l68 -102l-68 -101l68 -100l-68 -102l68 -103l-68 -102l68 -103 l-72 -110v-76h-47v90l62 96zM2 0h47v68h-47v-68z" />
<glyph unicode="&#x22;" horiz-adv-x="557" d="M0 1970v88h47v-88h-47zM102 1970v88h45v-88h-45z" />
<glyph unicode="#" d="M0 780v47h63v381h-63v47h63v803h48v-803h71v803h47v-803h64v-47h-64v-381h64v-47h-64v-780h-47v780h-71v-780h-48v780h-63zM111 827h71v381h-71v-381z" />
<glyph unicode="$" horiz-adv-x="710" d="M-2 1640l68 103l-68 104l129 181v30h47v-35l119 -163l-39 -27l-80 111v-908l127 -213l-65 -102l65 -98l-65 -103l65 -102l-65 -103l65 -104l-127 -180v-31h-22h-25v35l-119 164l37 26l82 -110v907l-127 213l66 98l-66 103l66 102zM55 1233l72 -119v832l-72 -101l66 -102 l-66 -103l66 -102l-66 -102l66 -103zM174 113l70 100l-66 102l68 103l-68 102l68 103l-68 98l68 104l-72 119v-831z" />
<glyph unicode="%" horiz-adv-x="698" d="M0 6l242 2044l47 -6l-242 -2044zM0 1982h53v68h-53v-68zM236 0h53v68h-53v-68z" />
<glyph unicode="&#x26;" horiz-adv-x="704" d="M-2 205v629l121 200l-121 191v628l149 205l142 -198l-39 -27l-103 143l-102 -137v-602l129 -201l-129 -215v-602l102 -139l19 24l80 113v567l-31 54l-59 -101l-29 45l59 101l4 6l3 2l73 125l29 -45l-51 -84v-4l49 -84v-596l-127 -176l-19 -27z" />
<glyph unicode="'" horiz-adv-x="456" d="M0 1970v88h47v-88h-47z" />
<glyph unicode="(" horiz-adv-x="555" d="M0 205l145 -205v82l-98 137v1620l98 137v82l-145 -205v-1648z" />
<glyph unicode=")" horiz-adv-x="555" d="M0 0v82l98 137v1620l-98 137v82l145 -205v-1648z" />
<glyph unicode="*" horiz-adv-x="647" d="M0 1935v47h76l-53 80h53l43 -61l41 61h55l-53 -80h76v-47h-74l51 -77h-53l-43 61l-41 -61h-55l51 77h-74z" />
<glyph unicode="+" d="M0 999v48h123v122h47v-122h123v-48h-123v-122h-47v122h-123z" />
<glyph unicode="," horiz-adv-x="456" d="M0 45h47v-174h-47v174z" />
<glyph unicode="-" d="M0 1010h293v47h-293v-47z" />
<glyph unicode="." horiz-adv-x="456" d="M0 0h47v45h-47v-45z" />
<glyph unicode="/" horiz-adv-x="698" d="M0 6l242 2044l47 -6l-242 -2044z" />
<glyph unicode="0" horiz-adv-x="708" d="M0 211l150 -211l149 211l-66 104l66 103l-66 102l66 103l-66 100l66 102l-66 103l66 102l-66 103l66 102l-66 98l66 103l-66 102l66 102l-66 105l66 102l-149 211l-150 -211l66 -102l-66 -105l66 -102l-66 -102l66 -103l-66 -98l66 -102l-66 -103l66 -102l-66 -103 l66 -102l-66 -100l66 -103l-66 -102l66 -103zM57 213l66 102l-66 103l66 102l-66 103l66 98l-66 104l66 103l-66 102l66 103l-66 102l66 98l-66 103l66 102l-66 102l66 105l-66 100l93 131l94 -131l-68 -100l68 -105l-68 -102l68 -102l-68 -103l68 -98l-68 -102l68 -103 l-68 -102l68 -103l-68 -104l68 -98l-68 -103l68 -102l-68 -103l68 -102l-94 -131z" />
<glyph unicode="1" horiz-adv-x="598" d="M0 2032l131 -187l-65 -102l67 -103l-67 -102l67 -102l-67 -103l65 -98l-65 -102l67 -103l-67 -102l67 -103l-67 -104l65 -98l-65 -103l67 -102l-67 -103l71 -110l-2 -205h47l2 219l-61 96l65 103l-65 102l65 103l-65 100l65 102l-65 103l65 102l-65 103l65 102l-65 98 l65 103l-65 102l65 102l-65 103l65 104l-149 211z" />
<glyph unicode="2" horiz-adv-x="712" d="M0 211l137 -211h137v47h-112l-105 166l66 102l-66 103l66 102l-66 103l66 98l-68 104l248 410l-65 98l65 103l-67 102l67 102l-67 103l67 104l-149 211l-144 -198l37 -27l107 145l92 -133l-66 -102l66 -103l-66 -102l66 -102l-66 -103l66 -100l-246 -410l66 -100 l-66 -100l66 -103l-66 -102l66 -103z" />
<glyph unicode="3" horiz-adv-x="704" d="M0 199l141 -199l154 211l-68 104l66 103l-66 102l66 103l-66 102l66 102l-123 207l123 197l-66 102l66 103l-66 102l66 102l-66 103l68 104l-154 211l-141 -198l39 -27l102 143l97 -131l-66 -102l66 -103l-66 -102l66 -102l-66 -103l66 -102l-123 -195l123 -209l-66 -102 l66 -102l-66 -103l66 -102l-66 -103l66 -102l-97 -133l-102 145z" />
<glyph unicode="4" horiz-adv-x="712" d="M0 1233l66 100l-66 103l66 104l-66 102l66 103l-62 94v219h47v-205l72 -108l-68 -103l68 -102l-68 -104l68 -103l-68 -102l154 -258l37 57l-66 103l66 102l-66 98l66 105l-66 102l66 102l-66 103l70 108v205h47v-219l-61 -94l67 -103l-67 -102l67 -102l-67 -103l67 -100 l-67 -102l67 -103l-67 -102l67 -103l-67 -102l67 -100l-67 -103l67 -102l-67 -103l61 -96l2 -219h-47l-2 205l-70 110l66 103l-66 102l66 103l-66 100l66 102l-66 103z" />
<glyph unicode="5" horiz-adv-x="712" d="M0 1235l246 -410l-66 -100l66 -102l-66 -103l66 -102l-66 -103l66 -102l-92 -133l-107 145l-37 -26l144 -199l149 211l-67 104l67 103l-67 102l67 103l-65 102l65 98l-248 410l68 104l-66 99l66 102l-66 102l66 103l-66 102l105 166h112v47h-137l-137 -211l66 -104 l-66 -103l66 -102l-66 -102l66 -101z" />
<glyph unicode="6" horiz-adv-x="712" d="M0 211l150 -211l153 211l-65 104l65 103l-65 102l65 103l-65 102l65 102l-180 303l-66 105l66 102l-66 99l66 102l-66 102l66 103l-66 102l93 131l106 -143l37 27l-143 198l-150 -211l68 -104l-66 -103l66 -102l-68 -102l68 -101l-66 -100l66 -105l-66 -102l66 -102 l-68 -103l68 -98l-66 -102l66 -103l-66 -102l66 -103zM57 213l66 102l-66 103l66 102l-66 103l66 102l-66 100l66 101l-66 102l37 59l154 -260l-68 -102l68 -102l-68 -103l68 -102l-68 -103l66 -102l-94 -133z" />
<glyph unicode="7" horiz-adv-x="700" d="M0 1860l39 -27l102 143l92 -131l-65 -102l65 -103l-65 -102l65 -102l-65 -103l65 -98l-65 -102l65 -103l-65 -102l65 -103l-65 -104l65 -98l-65 -103l65 -102l-65 -103l70 -110v-205h47v219l-62 96l68 103l-68 102l68 103l-68 100l68 102l-68 103l68 102l-68 103l68 102 l-68 98l68 103l-68 102l68 102l-68 103l68 104l-150 211zM14 1006h123v47h-123v-47z" />
<glyph unicode="8" horiz-adv-x="714" d="M0 215l154 -215l149 215l-65 102l67 105l-67 102l67 103l-67 98l65 104l-123 207l123 203l-65 98l67 103l-67 102l67 103l-67 104l65 102l-149 215l-150 -215l66 -104l-66 -102l66 -103l-66 -100l66 -107l-66 -96l121 -203l-121 -209l66 -102l-66 -98l66 -103l-66 -102 l66 -103zM57 215l68 104l-66 103l66 102l-66 103l66 98l-66 104l93 160l96 -160l-66 -104l66 -98l-66 -103l66 -102l-66 -103l64 -102l-92 -135zM59 1237l66 98l-66 107l66 100l-66 103l66 102l-66 104l95 134l92 -134l-64 -104l66 -102l-66 -103l66 -100l-66 -105l66 -100 l-94 -156z" />
<glyph unicode="9" horiz-adv-x="712" d="M0 1231l180 -303v-2l66 -103l-66 -102l66 -98l-66 -103l66 -102l-66 -103l68 -102l-94 -133l-105 145l-39 -26l144 -199l149 211l-65 104l65 103l-65 102l65 103l-65 98l65 102l-65 103l65 102l-65 102l65 105l-65 98l65 103l-65 102l65 102l-65 103l65 104l-149 211 l-154 -211l68 -104l-68 -103l68 -102l-68 -102l68 -103zM55 1231l68 102l-66 103l66 102l-66 102l66 103l-66 102l97 131l92 -131l-66 -102l66 -103l-66 -102l66 -102l-66 -103l66 -100l-66 -103l66 -102l-37 -57z" />
<glyph unicode=":" horiz-adv-x="473" d="M0 797h63v47h-63v-47zM0 1206h63v47h-63v-47z" />
<glyph unicode=";" horiz-adv-x="473" d="M0 748v94h63v-94h-63zM0 1204v45h63v-45h-63z" />
<glyph unicode="&#x3c;" horiz-adv-x="534" d="M0 1024l70 102h55l-70 -102l70 -102h-55z" />
<glyph unicode="=" d="M0 784h293v47h-293v-47zM0 1194h293v47h-293v-47z" />
<glyph unicode="&#x3e;" horiz-adv-x="536" d="M2 922l70 102l-70 102h55l70 -102l-70 -102h-55z" />
<glyph unicode="?" horiz-adv-x="712" d="M0 0h53v68h-53v-68zM0 129v82l68 104l-68 103l68 102l-68 103l68 100l-68 100l248 410l-68 100l68 103l-68 102l68 102l-68 105l66 100l-92 133l-107 -145l-37 27l144 198l149 -211l-65 -102l65 -105l-65 -102l65 -102l-65 -103l65 -98l-246 -410l66 -104l-66 -98 l66 -103l-66 -102l66 -103l-66 -102l-2 -84h-55z" />
<glyph unicode="@" horiz-adv-x="700" d="M0 899v47h291v-47h-123v-373h-47v373h-121zM0 1047h47l2 299l96 139l99 -139v-299h47v313l-146 205l-143 -205zM111 1227h69v47h-69v-47z" />
<glyph unicode="A" horiz-adv-x="708" d="M0 418l66 102l-66 103l66 98l-66 102l66 103l-66 102l66 102l-66 105l66 98l-66 103l66 102l-66 102l66 103l-66 104l150 211l149 -211l-66 -104l66 -103l-66 -102l66 -102l-66 -103l66 -98l-66 -105l66 -102l-66 -102l66 -103l-66 -102l66 -98l-66 -103l66 -102 l-66 -103l62 -96l-2 -219h-47l2 205l-70 110l66 103l-68 102l68 103l-68 98l68 102l-66 103l66 102l-68 102l68 103l-68 100l68 103l-68 102l68 102l-66 103l66 102l-94 131l-93 -131l66 -102l-66 -103l66 -102l-66 -102l66 -103l-66 -100l66 -103l-66 -102l66 -102 l-66 -103l66 -102l-66 -98l66 -103l-66 -102l66 -103l-72 -110v-205h-47v219l62 96zM115 1006v47h67v-47h-67z" />
<glyph unicode="B" horiz-adv-x="712" d="M0 211l66 104l-66 103l66 102l-66 103l66 98l-66 102l66 103l-66 102l66 102l-66 105l66 98l-66 103l66 102l-66 102l66 103l-66 104l150 211l153 -211l-67 -104l67 -103l-67 -102l67 -102l-67 -103l67 -102l-125 -197l125 -207l-67 -102l67 -102l-67 -103l67 -102 l-67 -103l67 -104l-153 -211zM57 213l93 -133l96 133l-66 102l66 103l-66 102l66 103l-66 102l68 102l-125 209l123 195l-66 102l66 103l-66 102l66 102l-66 103l66 102l-96 131l-93 -131l66 -102l-66 -103l66 -102l-66 -102l66 -103l-66 -100l66 -103l-66 -102l66 -102 l-66 -103l66 -102l-66 -98l66 -103l-66 -102l66 -103z" />
<glyph unicode="C" d="M0 211l66 104l-66 103l66 102l-66 103l66 98l-66 102l66 103l-66 102l66 102l-66 105l66 98l-66 103l66 102l-66 102l66 103l-66 104l150 211l143 -198l-37 -27l-106 143l-93 -131l66 -102l-66 -103l66 -102l-66 -102l66 -103l-66 -100l66 -103l-66 -102l66 -102 l-66 -103l66 -102l-66 -98l66 -103l-66 -102l66 -103l-66 -102l93 -133l106 145l37 -26l-143 -199z" />
<glyph unicode="D" horiz-adv-x="708" d="M0 211l66 104l-66 103l66 102l-66 103l66 98l-66 102l66 103l-66 102l66 102l-66 105l66 98l-66 103l66 102l-66 102l66 103l-66 104l150 211l149 -205v-1648l-149 -205zM57 213l93 -133l102 139v1620l-102 137l-93 -131l66 -102l-66 -103l66 -102l-66 -102l66 -103 l-66 -100l66 -103l-66 -102l66 -102l-66 -103l66 -102l-66 -98l66 -103l-66 -102l66 -103z" />
<glyph unicode="E" d="M0 211l66 104l-66 103l66 102l-66 103l66 98l-66 102l66 103l-66 102l66 102l-66 105l66 98l-66 103l66 102l-66 102l66 103l-66 104l150 211l143 -198l-37 -27l-106 143l-93 -131l66 -102l-66 -103l66 -102l-66 -102l66 -103l-66 -100l66 -103l-66 -102l66 -102 l-66 -103l66 -102l-66 -98l66 -103l-66 -102l66 -103l-66 -102l93 -133l106 145l37 -26l-143 -199zM154 1006v47h122v-47h-122z" />
<glyph unicode="F" d="M0 418l66 102l-66 103l66 98l-66 102l66 103l-66 102l66 102l-66 105l66 98l-66 103l66 102l-66 102l66 103l-66 104l150 211l143 -198l-37 -27l-106 143l-93 -131l66 -102l-66 -103l66 -102l-66 -102l66 -103l-66 -100l66 -103l-66 -102l66 -102l-66 -103l66 -102 l-66 -98l66 -103l-66 -102l66 -103l-72 -110v-205h-47v219l62 96zM143 1006v47h123v-47h-123z" />
<glyph unicode="G" horiz-adv-x="708" d="M0 211l66 104l-66 103l66 102l-66 103l66 98l-66 102l66 103l-66 102l66 102l-66 105l66 98l-66 103l66 102l-66 102l66 103l-66 104l150 211l143 -198l-37 -27l-106 143l-93 -131l66 -102l-66 -103l66 -102l-66 -102l66 -103l-66 -100l66 -103l-66 -102l66 -102 l-66 -103l66 -102l-66 -98l66 -103l-66 -102l66 -103l-66 -102l93 -133l102 139v191l-64 96l39 26l72 -108v-219l-149 -205z" />
<glyph unicode="H" horiz-adv-x="722" d="M0 0v211l66 104l-66 103l66 102l-66 103l66 100l-66 102l66 103l-66 102l66 103l-66 102l66 98l-66 103l66 102l-66 102l66 105l-66 102v211h47v-196l76 -117l-68 -105l68 -102l-68 -102l68 -103l-68 -98l68 -102l-68 -103l68 -102l-68 -103l68 -104l-68 -98l68 -103 l-68 -102l68 -103l-76 -116v-199h-47zM123 1006v47h67v-47h-67zM193 315l65 103l-65 102l65 103l-65 98l65 104l-65 103l65 102l-65 103l65 102l-65 98l65 103l-65 102l65 102l-65 105l73 117v196h47v-211l-65 -102l65 -105l-65 -102l65 -102l-65 -103l65 -98l-65 -102 l65 -103l-65 -102l65 -103l-65 -102l65 -100l-65 -103l65 -102l-65 -103l65 -104v-211h-47v199z" />
<glyph unicode="I" horiz-adv-x="708" d="M0 0v47h121v172l61 96l-65 103l65 102l-65 103l65 102l-65 98l65 103l-65 102l65 102l-65 105l65 100l-65 101l65 102l-65 102l65 103l-61 96v172h-121v47h299v-47h-131v-158l72 -110l-68 -103l68 -102l-68 -102l68 -99l-68 -102l68 -105l-68 -102l68 -102l-68 -101 l68 -100l-68 -102l68 -103l-68 -102l68 -103l-72 -110v-158h131v-47h-299z" />
<glyph unicode="J" d="M0 199l39 26l104 -145l95 133l-66 102l66 103l-66 102l66 103l-68 98l68 102l-66 103l66 102l-66 102l66 103l-68 100l68 103l-66 102l66 102l-66 103l70 110v205h47v-219l-62 -96l66 -103l-66 -102l66 -102l-66 -103l66 -98l-66 -105l66 -102l-66 -102l66 -103l-66 -102 l66 -98l-66 -103l66 -102l-66 -103l66 -104l-150 -211z" />
<glyph unicode="K" horiz-adv-x="710" d="M0 418l66 102l-66 103l66 98l-62 96v424l62 92l-66 103l66 102l-66 102l66 103l-62 96v219h47v-205l72 -110l-68 -103l68 -102l-68 -102l68 -103l-72 -106v-174h88l107 180l-68 104l68 99l-68 102l68 102l-68 103l72 110v205h47v-219l-61 -96l65 -103l-65 -102l65 -102 l-65 -101l65 -100l-125 -213l125 -207l-65 -102l65 -99l-65 -102l65 -102l-65 -103l61 -96l-2 -211h-47l2 197l-72 110l68 103l-68 102l68 102l-68 99l68 104l-115 189h-80v-175l72 -110l-68 -98l68 -103l-68 -102l68 -103l-72 -110v-205h-47v219l62 96z" />
<glyph unicode="L" horiz-adv-x="671" d="M0 418l66 102l-66 103l66 98l-66 102l66 103l-66 102l66 102l-66 105l66 98l-66 103l66 102l-66 102l66 103l-62 96v219h47v-205l72 -110l-68 -103l68 -102l-68 -102l68 -103l-68 -100l68 -103l-68 -102l68 -102l-68 -103l68 -102l-68 -98l68 -103l-68 -102l68 -103 l-72 -110v-158h211v-47h-258v219l62 96z" />
<glyph unicode="M" horiz-adv-x="722" d="M0 418l66 102l-66 103l66 100l-66 102l66 103l-66 102l66 103l-66 102l66 100l-66 103l66 102l-62 96v211l-2 211l156 -176l153 176l-2 -211v-211l-61 -96l65 -102l-65 -103l65 -100l-65 -102l65 -103l-65 -102l65 -103l-65 -102l65 -100l-65 -103l65 -102l-65 -103 l61 -94l2 -221h-47l-2 207l-69 108l65 103l-65 102l65 103l-65 100l65 102l-65 103l65 102l-65 103l65 102l-65 100l65 103l-65 102l69 109v198l2 86l-106 -121l-107 121v-284l72 -109l-68 -102l68 -103l-68 -100l68 -102l-68 -103l68 -102l-68 -103l68 -102l-68 -100 l68 -103l-68 -102l68 -103l-72 -108v-207h-47v221l62 94z" />
<glyph unicode="N" horiz-adv-x="710" d="M0 410l66 -103l-62 -94v-213h47v199l72 108l-68 103l68 102l-68 102l68 101l-72 110v332l246 -418v492l-61 96l65 100l-65 103l65 102l-65 103l61 94v229h-47v-215l-72 -108l68 -103l-68 -102l68 -103l-68 -100l72 -108v-306l-246 418v-520l62 -96l-66 -99l66 -104z" />
<glyph unicode="O" horiz-adv-x="708" d="M0 211l150 -211l149 211l-66 104l66 103l-66 102l66 103l-66 100l66 102l-66 103l66 102l-66 103l66 102l-66 98l66 103l-66 102l66 102l-66 105l66 102l-149 211l-150 -211l66 -102l-66 -105l66 -102l-66 -102l66 -103l-66 -98l66 -102l-66 -103l66 -102l-66 -103 l66 -102l-66 -100l66 -103l-66 -102l66 -103zM57 213l66 102l-66 103l66 102l-66 103l66 98l-66 104l66 103l-66 102l66 103l-66 102l66 98l-66 103l66 102l-66 102l66 105l-66 100l93 131l94 -131l-68 -100l68 -105l-68 -102l68 -102l-68 -103l68 -98l-68 -102l68 -103 l-68 -102l68 -103l-68 -104l68 -98l-68 -103l68 -102l-68 -103l68 -102l-94 -131z" />
<glyph unicode="P" horiz-adv-x="712" d="M0 418l66 -103l-62 -96v-219h47v205l72 110l-66 103l66 102l-66 103l66 100l-66 102l66 103l180 305l-67 100l67 105l-67 102l67 102l-67 103l67 102l-153 211l-150 -211l66 -102l-66 -103l66 -102l-66 -102l66 -103l-66 -100l66 -102l-66 -103l66 -102l-66 -103l66 -102 l-66 -100l66 -103zM57 1030l66 103l-66 102l66 98l-66 105l66 102l-66 102l66 103l-66 100l93 133l96 -133l-66 -100l66 -103l-66 -102l66 -102l-66 -105l68 -102l-154 -258z" />
<glyph unicode="Q" horiz-adv-x="708" d="M0 211l217 -303l39 26l-76 107l119 170l-66 102l66 103l-66 102l66 105l-66 98l66 102l-66 103l66 102l-66 102l66 103l-66 100l66 103l-66 102l66 102l-66 103l66 102l-149 213l-150 -213l68 -102l-68 -103l68 -102l-68 -102l66 -103l-66 -100l68 -103l-68 -102l68 -102 l-68 -103l66 -102l-66 -98l68 -105l-68 -102l68 -103zM57 213l66 100l-66 103l66 102l-66 103l66 100l-66 102l66 103l-66 102l66 102l-66 103l66 100l-66 103l66 102l-66 102l66 103l-66 102l93 131l94 -131l-66 -102l66 -103l-66 -102l66 -102l-68 -103l68 -100l-66 -103 l66 -102l-66 -102l66 -103l-68 -102l68 -100l-66 -103l66 -102l-66 -103l66 -100l-92 -131z" />
<glyph unicode="R" horiz-adv-x="712" d="M0 418l66 -103l-62 -96v-219h47v205l72 110l-66 103l66 102l-66 103l66 98l-66 104l66 103l-66 102l66 103l-66 102l66 98l-66 103l66 102l-66 102l66 105l-66 100l93 133l96 -133l-66 -100l66 -105l-66 -102l66 -102l-66 -103l68 -102l-127 -211l125 -193l-66 -102 l66 -102l-66 -103l66 -102l-66 -103l72 -110l-2 -205h47l2 219l-63 96l67 103l-67 102l67 103l-67 102l67 102l-127 193l127 213l-67 100l67 103l-67 102l67 102l-67 105l67 102l-153 211l-150 -211l66 -102l-66 -105l66 -102l-66 -102l66 -103l-66 -98l66 -102l-66 -103 l66 -102l-66 -103l66 -102l-66 -100l66 -103z" />
<glyph unicode="S" horiz-adv-x="712" d="M0 1235l248 -410l-68 -104l66 -98l-66 -103l66 -102l-66 -103l66 -102l-92 -133l-107 145l-37 -26l144 -199l149 211l-67 104l67 103l-67 102l67 103l-65 98l65 102l-248 410l68 100l-66 103l66 102l-66 102l66 103l-66 102l93 131l106 -143l37 27l-143 198l-150 -211 l66 -104l-66 -103l66 -102l-66 -102l66 -103z" />
<glyph unicode="T" horiz-adv-x="708" d="M0 2011v47h143h156v-47h-131v-158l72 -110l-66 -103l66 -102l-66 -102l66 -99l-66 -102l66 -105l-66 -102l66 -102l-66 -101l66 -100l-66 -102l66 -103l-66 -102l66 -103l-72 -110v-205h-47v219l61 96l-65 103l65 102l-65 103l65 102l-65 98l65 103l-65 102l65 102 l-65 105l65 100l-65 101l65 102l-65 102l65 103l-61 96v172h-121z" />
<glyph unicode="U" horiz-adv-x="722" d="M0 418l66 -103l-62 -96v-219h307l-2 219l-61 96l65 103l-65 102l65 103l-65 100l65 102l-65 103l65 102l-65 103l65 102l-65 98l65 103l-65 102l65 102l-65 105l61 94l2 219h-47l-2 -205l-69 -108l65 -105l-65 -102l65 -102l-65 -103l65 -98l-65 -102l65 -103l-65 -102 l65 -103l-65 -104l65 -98l-65 -103l65 -102l-65 -103l69 -110l2 -158h-213v158l72 110l-68 103l68 102l-68 103l68 98l-68 104l68 103l-68 102l68 103l-68 102l68 98l-68 103l68 102l-68 102l68 105l-72 108v205h-47v-219l62 -94l-66 -105l66 -102l-66 -102l66 -103l-66 -98 l66 -102l-66 -103l66 -102l-66 -103l66 -102l-66 -100l66 -103z" />
<glyph unicode="V" horiz-adv-x="708" d="M0 211l150 -211l149 211l-66 104l66 103l-66 102l66 103l-66 100l66 102l-66 103l66 102l-66 103l66 102l-66 98l66 103l-66 102l66 102l-66 105l62 94v219h-47v-205l-72 -108l68 -105l-68 -102l68 -102l-68 -103l68 -98l-68 -102l68 -103l-68 -102l68 -103l-68 -104 l68 -98l-68 -103l68 -102l-68 -103l68 -102l-94 -131l-93 131l66 102l-66 103l66 102l-66 103l66 98l-66 104l66 103l-66 102l66 103l-66 102l66 98l-66 103l66 102l-66 102l66 105l-72 108v205h-47v-219l62 -94l-66 -105l66 -102l-66 -102l66 -103l-66 -98l66 -102 l-66 -103l66 -102l-66 -103l66 -102l-66 -100l66 -103l-66 -102l66 -103z" />
<glyph unicode="W" horiz-adv-x="722" d="M0 416l66 -103l-62 -94l-2 -219l156 176l153 -176l-2 219l-61 94l65 103l-65 102l65 103l-65 102l65 100l-65 103l65 102l-65 102l65 103l-65 102l65 101l-65 102l65 102l-65 103l61 96l2 217h-47l-2 -203l-69 -110l65 -103l-65 -102l65 -102l-65 -101l65 -102l-65 -103 l65 -102l-65 -102l65 -103l-65 -98l65 -104l-65 -103l65 -102l-65 -103l69 -108l2 -78l-106 121l-107 -121v78l72 108l-68 103l68 102l-68 103l68 104l-68 98l68 103l-68 102l68 102l-68 103l68 102l-68 101l68 102l-68 102l68 103l-72 110v203h-47v-217l62 -96l-66 -103 l66 -102l-66 -102l66 -101l-66 -102l66 -103l-66 -102l66 -102l-66 -103l66 -100l-66 -102l66 -103z" />
<glyph unicode="X" horiz-adv-x="712" d="M0 0l2 213l66 100l-66 103l66 102l-66 103l66 100l-66 102l123 201l-123 211l66 94l-66 103l66 102l-66 102l66 103l-62 94v225h47v-211l72 -108l-66 -103l66 -102l-66 -102l66 -103l-68 -96l97 -162l94 162l-68 98l68 101l-68 102l68 102l-68 103l72 108v211h47v-225 l-61 -94l65 -103l-65 -102l65 -102l-65 -101l65 -96l-123 -211l123 -199l-65 -102l65 -100l-65 -103l65 -102l-65 -103l61 -96l-2 -219h-47l2 205l-72 110l68 103l-68 102l68 103l-68 100l68 102l-94 152l-95 -154l66 -102l-66 -100l66 -103l-66 -102l66 -103l-76 -114 l-2 -199h-47z" />
<glyph unicode="Y" horiz-adv-x="733" d="M0 2032l39 26l125 -170l121 170l39 -26l-134 -191l66 -102l-66 -103l66 -102l-66 -102l66 -103l-66 -100l66 -103l-66 -102l66 -102l-66 -103l66 -102l-66 -101l66 -102l-66 -102l66 -103l-70 -108l-2 -201h-47l2 215l62 94l-66 103l66 102l-66 102l66 101l-66 102 l66 103l-66 102l66 102l-66 103l66 100l-66 103l66 102l-66 102l66 103l-39 61z" />
<glyph unicode="Z" horiz-adv-x="710" d="M0 211l66 104l-66 103l66 102l-66 103l66 100l-66 100l246 410l-68 102l68 101l-68 102l68 102l-58 117l64 103v151h-252v47h301v-211l-59 -94l59 -115l-65 -100l65 -102l-65 -101l65 -102l-246 -410l68 -102l-68 -98l68 -103l-68 -102l68 -103l-76 -118v-150h254v-47 h-297z" />
<glyph unicode="[" horiz-adv-x="585" d="M2 0v2058h174v-47h-127v-1964h127v-47h-174z" />
<glyph unicode="\" horiz-adv-x="698" d="M0 2044l242 -2044l47 6l-242 2044z" />
<glyph unicode="]" horiz-adv-x="581" d="M0 0h172v2058h-172v-47h125v-1964h-125v-47z" />
<glyph unicode="^" d="M0 1851v9l145 202l148 -202v-9h-53l-95 131l-92 -131h-53z" />
<glyph unicode="_" d="M0 0h293v47h-293v-47z" />
<glyph unicode="a" horiz-adv-x="708" d="M0 418l66 102l-66 103l66 98l-66 102l66 103l-66 102l66 102l-66 105l66 98l-66 103l66 102l-66 102l66 103l-66 104l150 211l149 -211l-66 -104l66 -103l-66 -102l66 -102l-66 -103l66 -98l-66 -105l66 -102l-66 -102l66 -103l-66 -102l66 -98l-66 -103l66 -102 l-66 -103l62 -96l-2 -219h-47l2 205l-70 110l66 103l-68 102l68 103l-68 98l68 102l-66 103l66 102l-68 102l68 103l-68 100l68 103l-68 102l68 102l-66 103l66 102l-94 131l-93 -131l66 -102l-66 -103l66 -102l-66 -102l66 -103l-66 -100l66 -103l-66 -102l66 -102 l-66 -103l66 -102l-66 -98l66 -103l-66 -102l66 -103l-72 -110v-205h-47v219l62 96zM115 1006v47h67v-47h-67z" />
<glyph unicode="b" horiz-adv-x="712" d="M0 211l66 104l-66 103l66 102l-66 103l66 98l-66 102l66 103l-66 102l66 102l-66 105l66 98l-66 103l66 102l-66 102l66 103l-66 104l150 211l153 -211l-67 -104l67 -103l-67 -102l67 -102l-67 -103l67 -102l-125 -197l125 -207l-67 -102l67 -102l-67 -103l67 -102 l-67 -103l67 -104l-153 -211zM57 213l93 -133l96 133l-66 102l66 103l-66 102l66 103l-66 102l68 102l-125 209l123 195l-66 102l66 103l-66 102l66 102l-66 103l66 102l-96 131l-93 -131l66 -102l-66 -103l66 -102l-66 -102l66 -103l-66 -100l66 -103l-66 -102l66 -102 l-66 -103l66 -102l-66 -98l66 -103l-66 -102l66 -103z" />
<glyph unicode="c" d="M0 211l66 104l-66 103l66 102l-66 103l66 98l-66 102l66 103l-66 102l66 102l-66 105l66 98l-66 103l66 102l-66 102l66 103l-66 104l150 211l143 -198l-37 -27l-106 143l-93 -131l66 -102l-66 -103l66 -102l-66 -102l66 -103l-66 -100l66 -103l-66 -102l66 -102 l-66 -103l66 -102l-66 -98l66 -103l-66 -102l66 -103l-66 -102l93 -133l106 145l37 -26l-143 -199z" />
<glyph unicode="d" horiz-adv-x="708" d="M0 211l66 104l-66 103l66 102l-66 103l66 98l-66 102l66 103l-66 102l66 102l-66 105l66 98l-66 103l66 102l-66 102l66 103l-66 104l150 211l149 -205v-1648l-149 -205zM57 213l93 -133l102 139v1620l-102 137l-93 -131l66 -102l-66 -103l66 -102l-66 -102l66 -103 l-66 -100l66 -103l-66 -102l66 -102l-66 -103l66 -102l-66 -98l66 -103l-66 -102l66 -103z" />
<glyph unicode="e" d="M0 211l66 104l-66 103l66 102l-66 103l66 98l-66 102l66 103l-66 102l66 102l-66 105l66 98l-66 103l66 102l-66 102l66 103l-66 104l150 211l143 -198l-37 -27l-106 143l-93 -131l66 -102l-66 -103l66 -102l-66 -102l66 -103l-66 -100l66 -103l-66 -102l66 -102 l-66 -103l66 -102l-66 -98l66 -103l-66 -102l66 -103l-66 -102l93 -133l106 145l37 -26l-143 -199zM154 1006v47h122v-47h-122z" />
<glyph unicode="f" d="M0 418l66 102l-66 103l66 98l-66 102l66 103l-66 102l66 102l-66 105l66 98l-66 103l66 102l-66 102l66 103l-66 104l150 211l143 -198l-37 -27l-106 143l-93 -131l66 -102l-66 -103l66 -102l-66 -102l66 -103l-66 -100l66 -103l-66 -102l66 -102l-66 -103l66 -102 l-66 -98l66 -103l-66 -102l66 -103l-72 -110v-205h-47v219l62 96zM143 1006v47h123v-47h-123z" />
<glyph unicode="g" horiz-adv-x="708" d="M0 211l66 104l-66 103l66 102l-66 103l66 98l-66 102l66 103l-66 102l66 102l-66 105l66 98l-66 103l66 102l-66 102l66 103l-66 104l150 211l143 -198l-37 -27l-106 143l-93 -131l66 -102l-66 -103l66 -102l-66 -102l66 -103l-66 -100l66 -103l-66 -102l66 -102 l-66 -103l66 -102l-66 -98l66 -103l-66 -102l66 -103l-66 -102l93 -133l102 139v191l-64 96l39 26l72 -108v-219l-149 -205z" />
<glyph unicode="h" horiz-adv-x="722" d="M0 0v211l66 104l-66 103l66 102l-66 103l66 100l-66 102l66 103l-66 102l66 103l-66 102l66 98l-66 103l66 102l-66 102l66 105l-66 102v211h47v-196l76 -117l-68 -105l68 -102l-68 -102l68 -103l-68 -98l68 -102l-68 -103l68 -102l-68 -103l68 -104l-68 -98l68 -103 l-68 -102l68 -103l-76 -116v-199h-47zM123 1006v47h67v-47h-67zM193 315l65 103l-65 102l65 103l-65 98l65 104l-65 103l65 102l-65 103l65 102l-65 98l65 103l-65 102l65 102l-65 105l73 117v196h47v-211l-65 -102l65 -105l-65 -102l65 -102l-65 -103l65 -98l-65 -102 l65 -103l-65 -102l65 -103l-65 -102l65 -100l-65 -103l65 -102l-65 -103l65 -104v-211h-47v199z" />
<glyph unicode="i" horiz-adv-x="708" d="M0 0v47h121v172l61 96l-65 103l65 102l-65 103l65 102l-65 98l65 103l-65 102l65 102l-65 105l65 100l-65 101l65 102l-65 102l65 103l-61 96v172h-121v47h299v-47h-131v-158l72 -110l-68 -103l68 -102l-68 -102l68 -99l-68 -102l68 -105l-68 -102l68 -102l-68 -101 l68 -100l-68 -102l68 -103l-68 -102l68 -103l-72 -110v-158h131v-47h-299z" />
<glyph unicode="j" d="M0 199l39 26l104 -145l95 133l-66 102l66 103l-66 102l66 103l-68 98l68 102l-66 103l66 102l-66 102l66 103l-68 100l68 103l-66 102l66 102l-66 103l70 110v205h47v-219l-62 -96l66 -103l-66 -102l66 -102l-66 -103l66 -98l-66 -105l66 -102l-66 -102l66 -103l-66 -102 l66 -98l-66 -103l66 -102l-66 -103l66 -104l-150 -211z" />
<glyph unicode="k" horiz-adv-x="710" d="M0 418l66 102l-66 103l66 98l-62 96v424l62 92l-66 103l66 102l-66 102l66 103l-62 96v219h47v-205l72 -110l-68 -103l68 -102l-68 -102l68 -103l-72 -106v-174h88l107 180l-68 104l68 99l-68 102l68 102l-68 103l72 110v205h47v-219l-61 -96l65 -103l-65 -102l65 -102 l-65 -101l65 -100l-125 -213l125 -207l-65 -102l65 -99l-65 -102l65 -102l-65 -103l61 -96l-2 -211h-47l2 197l-72 110l68 103l-68 102l68 102l-68 99l68 104l-115 189h-80v-175l72 -110l-68 -98l68 -103l-68 -102l68 -103l-72 -110v-205h-47v219l62 96z" />
<glyph unicode="l" horiz-adv-x="671" d="M0 418l66 102l-66 103l66 98l-66 102l66 103l-66 102l66 102l-66 105l66 98l-66 103l66 102l-66 102l66 103l-62 96v219h47v-205l72 -110l-68 -103l68 -102l-68 -102l68 -103l-68 -100l68 -103l-68 -102l68 -102l-68 -103l68 -102l-68 -98l68 -103l-68 -102l68 -103 l-72 -110v-158h211v-47h-258v219l62 96z" />
<glyph unicode="m" horiz-adv-x="722" d="M0 418l66 102l-66 103l66 100l-66 102l66 103l-66 102l66 103l-66 102l66 100l-66 103l66 102l-62 96v211l-2 211l156 -176l153 176l-2 -211v-211l-61 -96l65 -102l-65 -103l65 -100l-65 -102l65 -103l-65 -102l65 -103l-65 -102l65 -100l-65 -103l65 -102l-65 -103 l61 -94l2 -221h-47l-2 207l-69 108l65 103l-65 102l65 103l-65 100l65 102l-65 103l65 102l-65 103l65 102l-65 100l65 103l-65 102l69 109v198l2 86l-106 -121l-107 121v-284l72 -109l-68 -102l68 -103l-68 -100l68 -102l-68 -103l68 -102l-68 -103l68 -102l-68 -100 l68 -103l-68 -102l68 -103l-72 -108v-207h-47v221l62 94z" />
<glyph unicode="n" horiz-adv-x="710" d="M0 410l66 -103l-62 -94v-213h47v199l72 108l-68 103l68 102l-68 102l68 101l-72 110v332l246 -418v492l-61 96l65 100l-65 103l65 102l-65 103l61 94v229h-47v-215l-72 -108l68 -103l-68 -102l68 -103l-68 -100l72 -108v-306l-246 418v-520l62 -96l-66 -99l66 -104z" />
<glyph unicode="o" horiz-adv-x="708" d="M0 211l150 -211l149 211l-66 104l66 103l-66 102l66 103l-66 100l66 102l-66 103l66 102l-66 103l66 102l-66 98l66 103l-66 102l66 102l-66 105l66 102l-149 211l-150 -211l66 -102l-66 -105l66 -102l-66 -102l66 -103l-66 -98l66 -102l-66 -103l66 -102l-66 -103 l66 -102l-66 -100l66 -103l-66 -102l66 -103zM57 213l66 102l-66 103l66 102l-66 103l66 98l-66 104l66 103l-66 102l66 103l-66 102l66 98l-66 103l66 102l-66 102l66 105l-66 100l93 131l94 -131l-68 -100l68 -105l-68 -102l68 -102l-68 -103l68 -98l-68 -102l68 -103 l-68 -102l68 -103l-68 -104l68 -98l-68 -103l68 -102l-68 -103l68 -102l-94 -131z" />
<glyph unicode="p" horiz-adv-x="712" d="M0 418l66 -103l-62 -96v-219h47v205l72 110l-66 103l66 102l-66 103l66 100l-66 102l66 103l180 305l-67 100l67 105l-67 102l67 102l-67 103l67 102l-153 211l-150 -211l66 -102l-66 -103l66 -102l-66 -102l66 -103l-66 -100l66 -102l-66 -103l66 -102l-66 -103l66 -102 l-66 -100l66 -103zM57 1030l66 103l-66 102l66 98l-66 105l66 102l-66 102l66 103l-66 100l93 133l96 -133l-66 -100l66 -103l-66 -102l66 -102l-66 -105l68 -102l-154 -258z" />
<glyph unicode="q" horiz-adv-x="708" d="M0 211l217 -303l39 26l-76 107l119 170l-66 102l66 103l-66 102l66 105l-66 98l66 102l-66 103l66 102l-66 102l66 103l-66 100l66 103l-66 102l66 102l-66 103l66 102l-149 213l-150 -213l68 -102l-68 -103l68 -102l-68 -102l66 -103l-66 -100l68 -103l-68 -102l68 -102 l-68 -103l66 -102l-66 -98l68 -105l-68 -102l68 -103zM57 213l66 100l-66 103l66 102l-66 103l66 100l-66 102l66 103l-66 102l66 102l-66 103l66 100l-66 103l66 102l-66 102l66 103l-66 102l93 131l94 -131l-66 -102l66 -103l-66 -102l66 -102l-68 -103l68 -100l-66 -103 l66 -102l-66 -102l66 -103l-68 -102l68 -100l-66 -103l66 -102l-66 -103l66 -100l-92 -131z" />
<glyph unicode="r" horiz-adv-x="712" d="M0 418l66 -103l-62 -96v-219h47v205l72 110l-66 103l66 102l-66 103l66 98l-66 104l66 103l-66 102l66 103l-66 102l66 98l-66 103l66 102l-66 102l66 105l-66 100l93 133l96 -133l-66 -100l66 -105l-66 -102l66 -102l-66 -103l68 -102l-127 -211l125 -193l-66 -102 l66 -102l-66 -103l66 -102l-66 -103l72 -110l-2 -205h47l2 219l-63 96l67 103l-67 102l67 103l-67 102l67 102l-127 193l127 213l-67 100l67 103l-67 102l67 102l-67 105l67 102l-153 211l-150 -211l66 -102l-66 -105l66 -102l-66 -102l66 -103l-66 -98l66 -102l-66 -103 l66 -102l-66 -103l66 -102l-66 -100l66 -103z" />
<glyph unicode="s" horiz-adv-x="712" d="M0 1235l248 -410l-68 -104l66 -98l-66 -103l66 -102l-66 -103l66 -102l-92 -133l-107 145l-37 -26l144 -199l149 211l-67 104l67 103l-67 102l67 103l-65 98l65 102l-248 410l68 100l-66 103l66 102l-66 102l66 103l-66 102l93 131l106 -143l37 27l-143 198l-150 -211 l66 -104l-66 -103l66 -102l-66 -102l66 -103z" />
<glyph unicode="t" horiz-adv-x="708" d="M0 2011v47h143h156v-47h-131v-158l72 -110l-66 -103l66 -102l-66 -102l66 -99l-66 -102l66 -105l-66 -102l66 -102l-66 -101l66 -100l-66 -102l66 -103l-66 -102l66 -103l-72 -110v-205h-47v219l61 96l-65 103l65 102l-65 103l65 102l-65 98l65 103l-65 102l65 102 l-65 105l65 100l-65 101l65 102l-65 102l65 103l-61 96v172h-121z" />
<glyph unicode="u" horiz-adv-x="722" d="M0 418l66 -103l-62 -96v-219h307l-2 219l-61 96l65 103l-65 102l65 103l-65 100l65 102l-65 103l65 102l-65 103l65 102l-65 98l65 103l-65 102l65 102l-65 105l61 94l2 219h-47l-2 -205l-69 -108l65 -105l-65 -102l65 -102l-65 -103l65 -98l-65 -102l65 -103l-65 -102 l65 -103l-65 -104l65 -98l-65 -103l65 -102l-65 -103l69 -110l2 -158h-213v158l72 110l-68 103l68 102l-68 103l68 98l-68 104l68 103l-68 102l68 103l-68 102l68 98l-68 103l68 102l-68 102l68 105l-72 108v205h-47v-219l62 -94l-66 -105l66 -102l-66 -102l66 -103l-66 -98 l66 -102l-66 -103l66 -102l-66 -103l66 -102l-66 -100l66 -103z" />
<glyph unicode="v" horiz-adv-x="708" d="M0 211l150 -211l149 211l-66 104l66 103l-66 102l66 103l-66 100l66 102l-66 103l66 102l-66 103l66 102l-66 98l66 103l-66 102l66 102l-66 105l62 94v219h-47v-205l-72 -108l68 -105l-68 -102l68 -102l-68 -103l68 -98l-68 -102l68 -103l-68 -102l68 -103l-68 -104 l68 -98l-68 -103l68 -102l-68 -103l68 -102l-94 -131l-93 131l66 102l-66 103l66 102l-66 103l66 98l-66 104l66 103l-66 102l66 103l-66 102l66 98l-66 103l66 102l-66 102l66 105l-72 108v205h-47v-219l62 -94l-66 -105l66 -102l-66 -102l66 -103l-66 -98l66 -102 l-66 -103l66 -102l-66 -103l66 -102l-66 -100l66 -103l-66 -102l66 -103z" />
<glyph unicode="w" horiz-adv-x="722" d="M0 416l66 -103l-62 -94l-2 -219l156 176l153 -176l-2 219l-61 94l65 103l-65 102l65 103l-65 102l65 100l-65 103l65 102l-65 102l65 103l-65 102l65 101l-65 102l65 102l-65 103l61 96l2 217h-47l-2 -203l-69 -110l65 -103l-65 -102l65 -102l-65 -101l65 -102l-65 -103 l65 -102l-65 -102l65 -103l-65 -98l65 -104l-65 -103l65 -102l-65 -103l69 -108l2 -78l-106 121l-107 -121v78l72 108l-68 103l68 102l-68 103l68 104l-68 98l68 103l-68 102l68 102l-68 103l68 102l-68 101l68 102l-68 102l68 103l-72 110v203h-47v-217l62 -96l-66 -103 l66 -102l-66 -102l66 -101l-66 -102l66 -103l-66 -102l66 -102l-66 -103l66 -100l-66 -102l66 -103z" />
<glyph unicode="x" horiz-adv-x="712" d="M0 0l2 213l66 100l-66 103l66 102l-66 103l66 100l-66 102l123 201l-123 211l66 94l-66 103l66 102l-66 102l66 103l-62 94v225h47v-211l72 -108l-66 -103l66 -102l-66 -102l66 -103l-68 -96l97 -162l94 162l-68 98l68 101l-68 102l68 102l-68 103l72 108v211h47v-225 l-61 -94l65 -103l-65 -102l65 -102l-65 -101l65 -96l-123 -211l123 -199l-65 -102l65 -100l-65 -103l65 -102l-65 -103l61 -96l-2 -219h-47l2 205l-72 110l68 103l-68 102l68 103l-68 100l68 102l-94 152l-95 -154l66 -102l-66 -100l66 -103l-66 -102l66 -103l-76 -114 l-2 -199h-47z" />
<glyph unicode="y" horiz-adv-x="733" d="M0 2032l39 26l125 -170l121 170l39 -26l-134 -191l66 -102l-66 -103l66 -102l-66 -102l66 -103l-66 -100l66 -103l-66 -102l66 -102l-66 -103l66 -102l-66 -101l66 -102l-66 -102l66 -103l-70 -108l-2 -201h-47l2 215l62 94l-66 103l66 102l-66 102l66 101l-66 102 l66 103l-66 102l66 102l-66 103l66 100l-66 103l66 102l-66 102l66 103l-39 61z" />
<glyph unicode="z" horiz-adv-x="710" d="M0 211l66 104l-66 103l66 102l-66 103l66 100l-66 100l246 410l-68 102l68 101l-68 102l68 102l-58 117l64 103v151h-252v47h301v-211l-59 -94l59 -115l-65 -100l65 -102l-65 -101l65 -102l-246 -410l68 -102l-68 -98l68 -103l-68 -102l68 -103l-76 -118v-150h254v-47 h-297z" />
<glyph unicode="{" horiz-adv-x="585" d="M2 0v2058h174v-47h-127v-1964h127v-47h-174z" />
<glyph unicode="}" horiz-adv-x="581" d="M0 0h172v2058h-172v-47h125v-1964h-125v-47z" />
<glyph unicode="&#xab;" horiz-adv-x="647" d="M0 1024l70 102h55l-70 -102l70 -102h-55zM113 1024l69 102h56l-70 -102l70 -102h-56z" />
<glyph unicode="&#xad;" d="M0 1010h293v47h-293v-47z" />
<glyph unicode="&#xbb;" horiz-adv-x="647" d="M0 922l70 102l-70 102h55l70 -102l-70 -102h-55zM113 922l69 102l-69 102h55l70 -102l-70 -102h-55z" />
<glyph unicode="&#x2000;" horiz-adv-x="1033" />
<glyph unicode="&#x2001;" horiz-adv-x="2066" />
<glyph unicode="&#x2002;" horiz-adv-x="1033" />
<glyph unicode="&#x2003;" horiz-adv-x="2066" />
<glyph unicode="&#x2004;" horiz-adv-x="688" />
<glyph unicode="&#x2005;" horiz-adv-x="516" />
<glyph unicode="&#x2006;" horiz-adv-x="344" />
<glyph unicode="&#x2007;" horiz-adv-x="344" />
<glyph unicode="&#x2008;" horiz-adv-x="258" />
<glyph unicode="&#x2009;" horiz-adv-x="413" />
<glyph unicode="&#x200a;" horiz-adv-x="114" />
<glyph unicode="&#x2010;" d="M0 1010h293v47h-293v-47z" />
<glyph unicode="&#x2011;" d="M0 1010h293v47h-293v-47z" />
<glyph unicode="&#x2012;" d="M0 1010h293v47h-293v-47z" />
<glyph unicode="&#x2013;" d="M0 1010h293v47h-293v-47z" />
<glyph unicode="&#x2014;" d="M0 1010h293v47h-293v-47z" />
<glyph unicode="&#x2018;" horiz-adv-x="456" d="M0 1970v88h47v-88h-47z" />
<glyph unicode="&#x2019;" horiz-adv-x="456" d="M0 1970v88h47v-88h-47z" />
<glyph unicode="&#x201a;" horiz-adv-x="456" d="M0 45h47v-174h-47v174z" />
<glyph unicode="&#x201c;" horiz-adv-x="557" d="M0 1970v88h47v-88h-47zM102 1970v88h45v-88h-45z" />
<glyph unicode="&#x201d;" horiz-adv-x="557" d="M0 1970v88h47v-88h-47zM102 1970v88h45v-88h-45z" />
<glyph unicode="&#x201e;" horiz-adv-x="456" d="M0 45h47v-174h-47v174z" />
<glyph unicode="&#x2026;" horiz-adv-x="671" d="M0 0h47v45h-47v-45zM111 0h45v45h-45v-45zM217 0h45v45h-45v-45z" />
<glyph unicode="&#x202f;" horiz-adv-x="413" />
<glyph unicode="&#x2039;" horiz-adv-x="534" d="M0 1024l70 102h55l-70 -102l70 -102h-55z" />
<glyph unicode="&#x203a;" horiz-adv-x="536" d="M2 922l70 102l-70 102h55l70 -102l-70 -102h-55z" />
<glyph unicode="&#x205f;" horiz-adv-x="516" />
<glyph unicode="&#x25fc;" horiz-adv-x="2056" d="M0 0v2058h2058v-2058h-2058z" />
</font>
</defs>
</svg>
